HIERARCHY
ROOT Hips
{
	OFFSET 0.000000 0.000000 0.000000 
	CHANNELS 6 Xposition Yposition Zposition Zrotation Yrotation Xrotation
	JOINT LeftUpLeg
	{
		OFFSET 1.363060 -1.794630 0.839290 
		CHANNELS 3 Zrotation Yrotation Xrotation
		JOINT LeftLeg
		{
			OFFSET 2.448110 -6.726130 0.000000 
			CHANNELS 3 Zrotation Yrotation Xrotation
			JOINT LeftFoot
			{
				OFFSET 2.562200 -7.039590 0.000000 
				CHANNELS 3 Zrotation Yrotation Xrotation
				JOINT LeftToeBase
				{
					OFFSET 0.157640 -0.433110 2.322550 
					CHANNELS 3 Zrotation Yrotation Xrotation
					End Site
					{
						OFFSET 0.000000 0.000000 0.000000 
					}
				}
			}
		}
	}
	JOINT RightUpLeg
	{
		OFFSET -1.305520 -1.794630 0.839290 
		CHANNELS 3 Zrotation Yrotation Xrotation
		JOINT RightLeg
		{
			OFFSET -2.542530 -6.985550 0.000000 
			CHANNELS 3 Zrotation Yrotation Xrotation
			JOINT RightFoot
			{
				OFFSET -2.568260 -7.056230 0.000000 
				CHANNELS 3 Zrotation Yrotation Xrotation
				JOINT RightToeBase
				{
					OFFSET -0.164730 -0.452590 2.363150 
					CHANNELS 3 Zrotation Yrotation Xrotation
					End Site
					{
						OFFSET 0.000000 0.000000 0.000000 
					}
				}
			}
		}
	}
	JOINT Spine
	{
		OFFSET 0.028270 2.035590 -0.193380 
		CHANNELS 3 Zrotation Yrotation Xrotation
		JOINT Spine1
		{
			OFFSET 0.056720 2.048850 -0.042750 
			CHANNELS 3 Zrotation Yrotation Xrotation
			JOINT Neck1
			{
				OFFSET -0.054170 1.746240 0.172020 
				CHANNELS 3 Zrotation Yrotation Xrotation
				JOINT Head
				{
					OFFSET 0.104070 1.761360 -0.123970 
					CHANNELS 3 Zrotation Yrotation Xrotation
					End Site
					{
						OFFSET 0.000000 0.000000 0.000000 
					}
				}
			}
			JOINT LeftArm
			{
				OFFSET 3.362410 1.200890 -0.311210 
				CHANNELS 3 Zrotation Yrotation Xrotation
				JOINT LeftForeArm
				{
					OFFSET 4.983000 -0.000000 -0.000000 
					CHANNELS 3 Zrotation Yrotation Xrotation
					JOINT LeftHand
					{
						OFFSET 3.483560 -0.000000 -0.000000 
						CHANNELS 3 Zrotation Yrotation Xrotation
						JOINT LeftHandIndex1
						{
							OFFSET 0.715260 -0.000000 -0.000000 
							CHANNELS 3 Zrotation Yrotation Xrotation
							End Site
							{
								OFFSET 0.000000 0.000000 0.000000 
							}
						}
					}
				}
			}
			JOINT RightArm
			{
				OFFSET -3.136600 1.374050 -0.404650 
				CHANNELS 3 Zrotation Yrotation Xrotation
				JOINT RightForeArm
				{
					OFFSET -5.241900 -0.000000 -0.000000 
					CHANNELS 3 Zrotation Yrotation Xrotation
					JOINT RightHand
					{
						OFFSET -3.444170 -0.000000 -0.000000 
						CHANNELS 3 Zrotation Yrotation Xrotation
						JOINT RightHandIndex1
						{
							OFFSET -0.622530 -0.000000 -0.000000 
							CHANNELS 3 Zrotation Yrotation Xrotation
							End Site
							{
								OFFSET 0.000000 0.000000 0.000000 
							}
						}
					}
				}
			}
		}
	}
}
MOTION
Frames: 6
Frame Time: 0.041667
-10.441040 18.156138 24.334286 178.966527 -2.814630 -170.217716 -15.160155 -4.260467 -9.405909 5.763336 14.750596 45.884968 0.187988 6.993637 17.108653 0.921600 6.116100 17.121700 19.538081 0.125666 -27.963224 0.535712 -9.193979 24.367397 -2.924294 9.534100 10.342765 -2.383000 -9.621900 27.760900 1.484425 -3.538059 -3.540696 -0.520075 -1.632251 8.601650 10.492937 -3.844662 6.546402 4.367400 -1.523700 -1.749900 -94.720329 -2.390685 17.392196 10.027413 -17.415656 -1.666133 0.071607 -0.464189 29.441739 -7.125000 0.000000 0.000000 94.786267 -9.069286 2.391150 -14.011541 26.454563 -3.101943 1.010237 -1.328868 31.070508 7.125000 0.000000 0.000000 
-10.374495 18.172029 24.135090 179.175979 -1.883207 -170.241545 -14.792800 -4.350037 -12.134217 7.085195 15.895007 50.594996 0.141542 8.090583 17.201392 0.510900 4.581400 12.718500 20.135788 0.112725 -27.255886 0.574963 -9.033094 24.075843 -3.043230 10.435605 10.194619 -2.436500 -9.721500 28.079500 1.477118 -3.357003 -3.526319 -0.515515 -1.521636 8.561672 10.536115 -3.828023 6.460495 4.404400 -1.517800 -1.816500 -94.699537 -2.208153 16.959868 10.184017 -17.649854 -1.712494 0.066671 -0.465527 29.181388 -7.125000 0.000000 0.000000 94.610907 -8.623770 3.101613 -14.270508 26.743136 -3.165943 1.014532 -1.311484 30.594014 7.125000 0.000000 0.000000 
-10.311260 18.180858 23.943289 179.258728 -0.932576 -170.195517 -14.601766 -4.671681 -14.905858 8.331889 16.844809 54.862681 0.096447 8.582620 16.869158 0.474700 4.418800 12.257800 20.550220 0.134350 -26.620613 0.602915 -8.896287 23.837039 -3.155931 11.317594 10.054407 -2.518100 -9.870700 28.559100 1.462291 -3.182503 -3.493034 -0.485388 -1.423718 8.674172 10.584102 -3.823152 6.349821 4.433100 -1.514400 -1.882300 -94.661582 -2.126279 16.650324 10.354171 -17.914724 -1.764983 0.062308 -0.468227 28.813711 -7.125000 0.000000 0.000000 94.399031 -7.960527 3.698070 -14.436786 26.920927 -3.210269 1.007453 -1.310224 30.596522 7.125000 0.000000 0.000000 
-10.256964 18.181410 23.751708 179.203564 0.072066 -170.317283 -14.629440 -5.198993 -17.224463 9.404491 17.593845 58.510979 -0.141830 8.468434 14.182520 0.564000 4.809800 13.367000 20.755658 0.000634 -25.839535 0.625861 -8.752171 23.602325 -3.295475 12.392984 10.019013 -2.623900 -10.059700 29.170300 1.431688 -3.011056 -3.454504 -0.484744 -1.333475 8.721324 10.473005 -3.808789 6.346273 4.338800 -1.512800 -1.917600 -94.689485 -2.041443 16.298638 10.482756 -18.097087 -1.801919 0.059116 -0.473884 28.342571 -7.125000 0.000000 0.000000 94.162257 -7.480054 4.451325 -14.712159 27.214602 -3.286552 0.999408 -1.314000 30.581034 7.125000 0.000000 0.000000 
-10.206751 18.181851 23.561231 179.291624 1.209328 -170.527897 -14.500196 -5.761466 -19.202005 10.275630 18.152129 61.401218 -0.327779 8.264710 11.616835 0.707300 5.375100 14.981500 21.060790 -0.066435 -24.925669 0.651610 -8.596740 23.338803 -3.421748 13.542352 10.026876 -2.733600 -10.250800 29.792700 1.428355 -2.870225 -3.424770 -0.393276 -1.258495 8.679870 10.441097 -3.653288 6.462910 4.313800 -1.438200 -1.874800 -94.844986 -2.056166 15.659650 10.473406 -18.064147 -1.794894 0.055399 -0.472977 27.869692 -7.125000 0.000000 0.000000 93.794394 -7.095559 5.430021 -15.037886 27.542919 -3.382667 0.993978 -1.327069 30.376421 7.125000 0.000000 0.000000 
-10.155766 18.191783 23.376161 179.473289 2.461676 -170.653028 -14.166429 -6.487852 -21.201139 10.922487 18.550308 63.507239 -0.378865 7.685453 10.123002 0.770300 5.604200 15.640200 21.400293 0.137969 -23.999767 0.680344 -8.445782 23.063784 -3.506256 14.534396 10.031612 -2.899700 -10.530900 30.713600 1.409437 -2.606651 -3.409876 -0.371634 -1.108361 8.543131 10.594951 -3.522503 6.530012 4.435800 -1.374500 -1.860400 -94.911376 -2.045163 15.132415 10.449423 -18.006786 -1.784638 0.054057 -0.470837 27.570442 -7.125000 0.000000 0.000000 93.604723 -6.742396 6.025102 -15.330091 27.832339 -3.471441 0.985711 -1.349465 30.329652 7.125000 0.000000 0.000000 
